<svg width="206" height="48" viewBox="0 0 206 48" fill="none" xmlns="http://www.w3.org/2000/svg">
<g clip-path="url(#clip0_11_59)">
<path d="M45.9406 10.7917C45.5234 10.5379 42.3867 8.62744 42.3867 8.62744C42.3867 8.62744 44.6537 2.14444 44.4561 1.24605C44.2619 0.348762 43.2995 0 43.2995 0L39.4796 7.05029L35.5539 5.344L35.5307 2.76912L34.331 1.70297C34.331 1.70297 33.9811 4.64206 33.4812 5.35393C32.9856 6.0647 31.0211 7.39684 31.0211 7.39684L32.0563 8.44533L34.7338 7.00283L38.0349 9.28854L33.9337 16.149C33.9337 16.149 34.7603 17.1677 35.5737 16.724C36.386 16.2803 40.3659 11.1648 40.3659 11.1648C40.3659 11.1648 44.2299 13.3258 44.6404 13.4196C45.051 13.5156 46.0653 14.0531 46.5796 12.8236C47.0939 11.5952 46.3577 11.0456 45.9406 10.7917Z" fill="#E20935"/>
<path d="M39.8184 17.8542C39.239 17.1578 38.5878 16.5254 37.9068 15.9283L36.9146 16.9547C37.5382 17.4977 38.1375 18.0727 38.6717 18.7062C37.706 19.3386 36.5813 19.896 35.3342 20.3573C34.4159 17.629 33.0749 15.3599 31.4592 13.8191C32.0706 14.0189 32.6611 14.2617 33.235 14.5321L33.9943 13.3103C31.7318 12.2232 29.1977 11.6118 26.5246 11.6118C26.5136 11.6118 26.507 11.6118 26.5014 11.6118C26.4959 11.6118 26.4893 11.6118 26.4838 11.6118C26.4639 11.6118 26.4452 11.614 26.4231 11.614C21.1276 11.6449 16.3885 14.0686 13.2331 17.8542C12.9417 18.204 12.6658 18.5661 12.4031 18.938C10.4021 21.7601 9.22229 25.2003 9.22229 28.9152C9.22229 32.6291 10.4021 36.0693 12.4031 38.8925C12.6658 39.2644 12.9417 39.6275 13.2331 39.9752C16.3896 43.7619 21.1276 46.1834 26.4231 46.2143C26.4452 46.2143 26.4639 46.2165 26.4838 46.2165C26.4893 46.2165 26.4948 46.2165 26.5014 46.2165C26.5081 46.2165 26.5169 46.2165 26.5246 46.2165C31.862 46.2165 36.642 43.7862 39.8184 39.9752C40.1098 39.6264 40.3857 39.2622 40.6484 38.8914C42.6482 36.0693 43.8281 32.6269 43.8281 28.9141C43.8281 25.2003 42.6493 21.759 40.6484 18.9369C40.3857 18.5661 40.112 18.2029 39.8184 17.8542ZM21.4676 13.8622C19.8772 15.3963 18.5561 17.639 17.6455 20.3308C16.4249 19.875 15.3256 19.3265 14.3798 18.7051C16.2373 16.5011 18.6786 14.8025 21.4676 13.8622ZM13.5465 19.7911C14.6215 20.5096 15.8653 21.1376 17.2405 21.6552C16.6478 23.8229 16.3068 26.23 16.2958 28.7695H10.646C10.678 25.4287 11.7508 22.3384 13.5465 19.7911ZM10.6979 30.19H16.3222C16.4138 32.3157 16.7361 34.331 17.2405 36.1763C15.8653 36.6939 14.6215 37.323 13.5465 38.0404C11.955 35.7823 10.9308 33.0971 10.6979 30.19ZM14.3842 39.122C15.33 38.5029 16.426 37.9554 17.6433 37.5007C18.555 40.1915 19.8761 42.4342 21.4676 43.9672C18.6786 43.0279 16.2417 41.3272 14.3842 39.122ZM25.8161 44.7464C22.9035 44.3479 20.3893 41.3603 18.9633 37.057C21.0184 36.4401 23.346 36.0682 25.8161 36.0063V44.7464ZM25.8161 34.5881C23.2114 34.6521 20.7535 35.055 18.5671 35.7249C18.119 34.023 17.8321 32.1578 17.7449 30.1889H25.8161V34.5881ZM25.8161 28.7684H17.7162C17.7283 26.3845 18.0385 24.1319 18.5726 22.1066C20.7568 22.7755 23.2125 23.1794 25.8161 23.2412V28.7684ZM25.8161 21.823C23.3471 21.7623 21.0195 21.3904 18.9655 20.7745C20.3926 16.4746 22.9035 13.4825 25.8161 13.083V21.823ZM27.2365 13.094C30.1171 13.5388 32.5982 16.5243 34.0098 20.7966C31.9746 21.3992 29.6767 21.7645 27.2365 21.8241V13.094ZM27.2365 23.2423C29.8103 23.1805 32.2362 22.7865 34.4038 22.1309C34.9324 24.1496 35.2426 26.3944 35.2536 28.7695H27.2365V23.2423ZM27.2365 30.19H35.2249C35.1388 32.1479 34.853 34.0054 34.4104 35.7017C32.2417 35.045 29.8103 34.6499 27.2365 34.5881V30.19ZM27.2365 44.7364V36.0075C29.6767 36.0682 31.9768 36.4324 34.0142 37.0361C32.6015 41.3084 30.1171 44.2905 27.2365 44.7364ZM31.457 44.0102C33.0716 42.4695 34.417 40.2025 35.3353 37.4742C36.5813 37.9345 37.7038 38.4907 38.6695 39.122C36.7822 41.3603 34.2989 43.0798 31.457 44.0102ZM39.505 38.0404C38.4112 37.3076 37.1387 36.6697 35.7348 36.1465C36.2337 34.31 36.5537 32.3046 36.6442 30.19H42.3536C42.1207 33.0971 41.0965 35.7823 39.505 38.0404ZM36.674 28.7684C36.6608 26.2399 36.3242 23.8438 35.7337 21.6828C37.1387 21.1597 38.409 20.5218 39.5028 19.7911C41.2973 22.3384 42.3734 25.4287 42.4032 28.7684H36.674Z" fill="#E20935"/>
<path d="M4.07256 28.4991C4.07256 15.8455 14.3665 5.54929 27.0224 5.54929C28.3325 5.54929 29.6094 5.67842 30.8577 5.89143L32.3101 4.99635L32.7891 3.40705C31.1491 3.07595 28.7607 2.72057 27.0224 2.72057C12.8071 2.72057 1.24384 14.286 1.24384 28.4991C1.24384 29.9946 1.31999 31.3963 1.48885 32.7262C2.19631 38.3119 9.30178 47.9989 14.9427 48C8.83492 43.6317 4.07256 36.7226 4.07256 28.4991Z" fill="#E20935"/>
</g>
<path d="M54.8381 17.1818L60.1115 33.7585H60.3139L65.598 17.1818H70.7116L63.1903 39H57.2457L49.7138 17.1818H54.8381ZM77.9506 17.1818V39H73.3377V17.1818H77.9506ZM93.5819 23.4567C93.4966 22.5973 93.1309 21.9297 92.4846 21.4538C91.8382 20.978 90.9611 20.7401 89.8532 20.7401C89.1003 20.7401 88.4647 20.8466 87.9462 21.0597C87.4277 21.2656 87.03 21.5533 86.753 21.9226C86.4831 22.2919 86.3482 22.7109 86.3482 23.1797C86.334 23.5703 86.4157 23.9112 86.5932 24.2024C86.7779 24.4936 87.03 24.7457 87.3496 24.9588C87.6692 25.1648 88.0385 25.3459 88.4576 25.5021C88.8766 25.6513 89.324 25.7791 89.7999 25.8857L91.7601 26.3544C92.7118 26.5675 93.5854 26.8516 94.3809 27.2067C95.1763 27.5618 95.8652 27.9986 96.4476 28.517C97.03 29.0355 97.481 29.6463 97.8006 30.3494C98.1273 31.0526 98.2942 31.8587 98.3013 32.7678C98.2942 34.103 97.9533 35.2607 97.2786 36.2408C96.611 37.2138 95.6451 37.9702 94.3809 38.5099C93.1238 39.0426 91.6074 39.3089 89.8319 39.3089C88.0705 39.3089 86.5364 39.0391 85.2296 38.4993C83.9299 37.9595 82.9142 37.1605 82.1827 36.1023C81.4583 35.0369 81.0783 33.7195 81.0428 32.1499H85.5066C85.5563 32.8814 85.7658 33.4922 86.1351 33.9822C86.5115 34.4652 87.0123 34.831 87.6373 35.0795C88.2694 35.321 88.9831 35.4418 89.7786 35.4418C90.5598 35.4418 91.2381 35.3281 91.8134 35.1009C92.3958 34.8736 92.8468 34.5575 93.1664 34.1527C93.486 33.7479 93.6458 33.2827 93.6458 32.7571C93.6458 32.267 93.5002 31.8551 93.209 31.5213C92.9249 31.1875 92.5059 30.9034 91.9519 30.669C91.405 30.4347 90.7338 30.2216 89.9384 30.0298L87.5627 29.4332C85.7232 28.9858 84.2708 28.2862 83.2054 27.3345C82.1401 26.3828 81.611 25.1009 81.6181 23.4886C81.611 22.1676 81.9625 21.0135 82.6728 20.0263C83.3901 19.0391 84.3738 18.2685 85.6238 17.7145C86.8738 17.1605 88.2942 16.8835 89.8851 16.8835C91.5044 16.8835 92.9178 17.1605 94.1252 17.7145C95.3397 18.2685 96.2843 19.0391 96.959 20.0263C97.6337 21.0135 97.9817 22.157 98.003 23.4567H93.5819ZM104.667 39H99.7235L107.256 17.1818H113.2L120.721 39H115.778L110.313 22.1676H110.143L104.667 39ZM104.358 30.424H116.034V34.0249H104.358V30.424Z" fill="#16171A"/>
<path d="M123.347 39V17.1818H127.96V35.1967H137.314V39H123.347ZM144.686 39H139.743L147.275 17.1818H153.22L160.741 39H155.798L150.333 22.1676H150.162L144.686 39ZM144.377 30.424H156.053V34.0249H144.377V30.424ZM181.616 17.1818V39H177.632L168.14 25.2678H167.98V39H163.367V17.1818H167.415L176.833 30.9034H177.025V17.1818H181.616ZM193.162 39H185.428V17.1818H193.226C195.42 17.1818 197.31 17.6186 198.893 18.4922C200.477 19.3587 201.695 20.6051 202.548 22.2315C203.407 23.858 203.837 25.804 203.837 28.0696C203.837 30.3423 203.407 32.2955 202.548 33.929C201.695 35.5625 200.47 36.8161 198.872 37.6896C197.281 38.5632 195.378 39 193.162 39ZM190.04 35.0476H192.97C194.334 35.0476 195.481 34.8061 196.411 34.3232C197.349 33.8331 198.052 33.0767 198.521 32.054C198.996 31.0241 199.234 29.696 199.234 28.0696C199.234 26.4574 198.996 25.1399 198.521 24.1172C198.052 23.0945 197.352 22.3416 196.422 21.8587C195.491 21.3757 194.344 21.1342 192.981 21.1342H190.04V35.0476Z" fill="#E20935"/>
<defs>
<clipPath id="clip0_11_59">
<rect width="48" height="48" fill="white"/>
</clipPath>
</defs>
</svg>
