<svg width="48" height="48" viewBox="0 0 48 48" fill="none" xmlns="http://www.w3.org/2000/svg">
<g clip-path="url(#clip0_11_41)">
<path d="M45.9406 10.7917C45.5234 10.5379 42.3867 8.62744 42.3867 8.62744C42.3867 8.62744 44.6537 2.14444 44.4561 1.24605C44.2619 0.348762 43.2995 0 43.2995 0L39.4796 7.05029L35.5539 5.344L35.5307 2.76912L34.331 1.70297C34.331 1.70297 33.9811 4.64206 33.4812 5.35393C32.9856 6.0647 31.0211 7.39684 31.0211 7.39684L32.0563 8.44533L34.7338 7.00283L38.0349 9.28854L33.9337 16.149C33.9337 16.149 34.7603 17.1677 35.5737 16.724C36.386 16.2803 40.3659 11.1648 40.3659 11.1648C40.3659 11.1648 44.2299 13.3258 44.6404 13.4196C45.051 13.5156 46.0653 14.0531 46.5796 12.8236C47.0939 11.5952 46.3577 11.0456 45.9406 10.7917Z" fill="#E20935"/>
<path d="M39.8184 17.8542C39.239 17.1578 38.5878 16.5254 37.9068 15.9283L36.9146 16.9547C37.5382 17.4977 38.1375 18.0727 38.6717 18.7062C37.706 19.3386 36.5813 19.896 35.3342 20.3573C34.4159 17.629 33.0749 15.3599 31.4592 13.8191C32.0706 14.0189 32.6611 14.2617 33.235 14.5321L33.9943 13.3103C31.7318 12.2232 29.1977 11.6118 26.5246 11.6118C26.5136 11.6118 26.507 11.6118 26.5014 11.6118C26.4959 11.6118 26.4893 11.6118 26.4838 11.6118C26.4639 11.6118 26.4452 11.614 26.4231 11.614C21.1276 11.6449 16.3885 14.0686 13.2331 17.8542C12.9417 18.204 12.6658 18.5661 12.4031 18.938C10.4021 21.7601 9.22229 25.2003 9.22229 28.9152C9.22229 32.6291 10.4021 36.0693 12.4031 38.8925C12.6658 39.2644 12.9417 39.6275 13.2331 39.9752C16.3896 43.7619 21.1276 46.1834 26.4231 46.2143C26.4452 46.2143 26.4639 46.2165 26.4838 46.2165C26.4893 46.2165 26.4948 46.2165 26.5014 46.2165C26.5081 46.2165 26.5169 46.2165 26.5246 46.2165C31.862 46.2165 36.642 43.7862 39.8184 39.9752C40.1098 39.6264 40.3857 39.2622 40.6484 38.8914C42.6482 36.0693 43.8281 32.6269 43.8281 28.9141C43.8281 25.2003 42.6493 21.759 40.6484 18.9369C40.3857 18.5661 40.112 18.2029 39.8184 17.8542ZM21.4676 13.8622C19.8772 15.3963 18.5561 17.639 17.6455 20.3308C16.4249 19.875 15.3256 19.3265 14.3798 18.7051C16.2373 16.5011 18.6786 14.8025 21.4676 13.8622ZM13.5465 19.7911C14.6215 20.5096 15.8653 21.1376 17.2405 21.6552C16.6478 23.8229 16.3068 26.23 16.2958 28.7695H10.646C10.678 25.4287 11.7508 22.3384 13.5465 19.7911ZM10.6979 30.19H16.3222C16.4138 32.3157 16.7361 34.331 17.2405 36.1763C15.8653 36.6939 14.6215 37.323 13.5465 38.0404C11.955 35.7823 10.9308 33.0971 10.6979 30.19ZM14.3842 39.122C15.33 38.5029 16.426 37.9554 17.6433 37.5007C18.555 40.1915 19.8761 42.4342 21.4676 43.9672C18.6786 43.0279 16.2417 41.3272 14.3842 39.122ZM25.8161 44.7464C22.9035 44.3479 20.3893 41.3603 18.9633 37.057C21.0184 36.4401 23.346 36.0682 25.8161 36.0063V44.7464ZM25.8161 34.5881C23.2114 34.6521 20.7535 35.055 18.5671 35.7249C18.119 34.023 17.8321 32.1578 17.7449 30.1889H25.8161V34.5881ZM25.8161 28.7684H17.7162C17.7283 26.3845 18.0385 24.1319 18.5726 22.1066C20.7568 22.7755 23.2125 23.1794 25.8161 23.2412V28.7684ZM25.8161 21.823C23.3471 21.7623 21.0195 21.3904 18.9655 20.7745C20.3926 16.4746 22.9035 13.4825 25.8161 13.083V21.823ZM27.2365 13.094C30.1171 13.5388 32.5982 16.5243 34.0098 20.7966C31.9746 21.3992 29.6767 21.7645 27.2365 21.8241V13.094ZM27.2365 23.2423C29.8103 23.1805 32.2362 22.7865 34.4038 22.1309C34.9324 24.1496 35.2426 26.3944 35.2536 28.7695H27.2365V23.2423ZM27.2365 30.19H35.2249C35.1388 32.1479 34.853 34.0054 34.4104 35.7017C32.2417 35.045 29.8103 34.6499 27.2365 34.5881V30.19ZM27.2365 44.7364V36.0075C29.6767 36.0682 31.9768 36.4324 34.0142 37.0361C32.6015 41.3084 30.1171 44.2905 27.2365 44.7364ZM31.457 44.0102C33.0716 42.4695 34.417 40.2025 35.3353 37.4742C36.5813 37.9345 37.7038 38.4907 38.6695 39.122C36.7822 41.3603 34.2989 43.0798 31.457 44.0102ZM39.505 38.0404C38.4112 37.3076 37.1387 36.6697 35.7348 36.1465C36.2337 34.31 36.5537 32.3046 36.6442 30.19H42.3536C42.1207 33.0971 41.0965 35.7823 39.505 38.0404ZM36.674 28.7684C36.6608 26.2399 36.3242 23.8438 35.7337 21.6828C37.1387 21.1597 38.409 20.5218 39.5028 19.7911C41.2973 22.3384 42.3734 25.4287 42.4032 28.7684H36.674Z" fill="#E20935"/>
<path d="M4.07256 28.4991C4.07256 15.8455 14.3665 5.54929 27.0224 5.54929C28.3325 5.54929 29.6094 5.67842 30.8577 5.89143L32.3101 4.99635L32.7891 3.40705C31.1491 3.07595 28.7607 2.72057 27.0224 2.72057C12.8071 2.72057 1.24384 14.286 1.24384 28.4991C1.24384 29.9946 1.31999 31.3963 1.48885 32.7262C2.19631 38.3119 9.30178 47.9989 14.9427 48C8.83492 43.6317 4.07256 36.7226 4.07256 28.4991Z" fill="#E20935"/>
</g>
<defs>
<clipPath id="clip0_11_41">
<rect width="48" height="48" fill="white"/>
</clipPath>
</defs>
</svg>
